PathFileType	4	(X/Y/Z)	./resultDataOpenSim/trcMotMarkerGrf/sub06/qtm-04-05.trc
DataRate	CameraRate	NumFrames	NumMarkers	Units	OrigDataRate	OrigDataStartFrame	OrigNumFrames
250.000000	250.000000	9	24	m	250.000000	133	530
Frame#	Time	L.Toe.Tip			R.Toe.Tip			L.Ankle.Lat			R.Ankle.Lat			L.Ankle.Med			R.Ankle.Med			L.Heel			R.Heel			L.Knee.Lat			R.Knee.Lat			L.Knee.Med			R.Knee.Med			L.Thigh.Upper			R.Thigh.Upper			L.ASIS			R.ASIS			V.Sacral			L.Acromium			R.Acromium			C7			L.Elbow			R.Elbow			L.Wrist.Lat			R.Wrist.Lat
		X1	Y1	Z1	X2	Y2	Z2	X3	Y3	Z3	X4	Y4	Z4	X5	Y5	Z5	X6	Y6	Z6	X7	Y7	Z7	X8	Y8	Z8	X9	Y9	Z9	X10	Y10	Z10	X11	Y11	Z11	X12	Y12	Z12	X13	Y13	Z13	X14	Y14	Z14	X15	Y15	Z15	X16	Y16	Z16	X17	Y17	Z17	X18	Y18	Z18	X19	Y19	Z19	X20	Y20	Z20	X21	Y21	Z21	X22	Y22	Z22	X23	Y23	Z23	X24	Y24	Z24

133	0.528	-0.12182948	0.11758036	-0.03807858	-0.79961518	0.035600104	0.13121911	-0.24688143	0.09064561	-0.050820729	-0.9313026	0.066322758	0.14927331	-0.24772642	0.108456	0.033289918	-0.90688019	0.08103005	0.061536649	-0.29134528	0.02918962	0.0030808945	-0.98802151	0.045404617	0.085124822	-0.38116449	0.4332029	-0.060646802	-0.73432915	0.40783704	0.17691678	-0.38818762	0.42905408	0.065056133	-0.76329678	0.41041182	0.045163575	-0.58001215	0.76627553	-0.11183517	-0.63952454	0.75934891	0.23283495	-0.51902028	0.81406002	-0.060998984	-0.53279731	0.80947208	0.19101224	-0.71522979	0.88417412	0.056152456	-0.61244853	1.2969525	-0.12448668	-0.58281478	1.286574	0.23561832	-0.67286058	1.3269591	0.061021745	-0.74132298	1.0133687	-0.17395813	-0.58786107	0.97076799	0.33947299	-0.66403159	0.79194091	-0.24875074	-0.34013521	0.93528262	0.30134405
134	0.532	-0.11245839	0.116593	-0.038180521	-0.79955059	0.035565961	0.13122407	-0.237413	0.08904241	-0.051149026	-0.93087612	0.066725955	0.14912118	-0.23850672	0.10678306	0.032986215	-0.90621711	0.081170982	0.061345276	-0.28155295	0.027249547	0.0027885639	-0.98788316	0.046215764	0.084957105	-0.37387408	0.43074714	-0.060622184	-0.72982246	0.40589989	0.1769425	-0.38096323	0.42635749	0.065183615	-0.7580799	0.40859831	0.045107826	-0.57280831	0.76328812	-0.11168555	-0.6335856	0.75708621	0.23285903	-0.5116524	0.81095238	-0.060703183	-0.52652794	0.80715273	0.19135674	-0.70827722	0.88143383	0.055368978	-0.60691059	1.2943106	-0.12492568	-0.57723122	1.284003	0.23529492	-0.66733159	1.3241385	0.060618337	-0.73598225	1.010949	-0.17389294	-0.58058512	0.96803602	0.33905179	-0.66135099	0.78914973	-0.24988801	-0.33293611	0.93409684	0.30035526
135	0.536	-0.10342538	0.11526569	-0.038284579	-0.79949096	0.03553461	0.13123029	-0.22831409	0.087238413	-0.051486094	-0.93041746	0.067182501	0.1489408	-0.22950875	0.10495539	0.032720709	-0.90552355	0.081362206	0.061151847	-0.27219042	0.025187607	0.0024927806	-0.98762399	0.047078447	0.084700669	-0.36664341	0.42827366	-0.060695109	-0.72530925	0.40396742	0.17697908	-0.37357538	0.42374389	0.065183369	-0.75279401	0.40669908	0.045032641	-0.56543132	0.76041612	-0.1115586	-0.62768087	0.75476743	0.23286478	-0.50414085	0.80789349	-0.06037385	-0.52029872	0.8048335	0.19174385	-0.70106702	0.87866137	0.054478843	-0.60131977	1.2915892	-0.12532752	-0.57165576	1.2814519	0.23492739	-0.66181558	1.3212957	0.060171617	-0.730533	1.0085126	-0.17380885	-0.57333302	0.96533441	0.33860205	-0.6583378	0.78641394	-0.25095428	-0.32579808	0.93281158	0.29935821
136	0.54	-0.094742321	0.11360936	-0.038417972	-0.7994326	0.035509346	0.13123603	-0.21957915	0.085223691	-0.051814734	-0.92994919	0.067688114	0.14873875	-0.22077925	0.10293335	0.032455099	-0.9048118	0.081617312	0.060963254	-0.26326553	0.022987498	0.0021771582	-0.98728899	0.048015146	0.08439774	-0.35938304	0.42578837	-0.060833226	-0.72082994	0.40204095	0.17700429	-0.36602038	0.42121759	0.065067736	-0.74746563	0.40472629	0.044937656	-0.55786154	0.75764721	-0.11147543	-0.62183988	0.75239059	0.23280601	-0.49653511	0.80490127	-0.060012367	-0.51407357	0.80250002	0.19212516	-0.69362002	0.87583267	0.053478286	-0.59565878	1.2887835	-0.12570999	-0.56606671	1.278917	0.23451268	-0.65630448	1.3184466	0.059676561	-0.72495047	1.0060443	-0.17372421	-0.566112	0.96266245	0.33812437	-0.65503397	0.78371701	-0.25194809	-0.31870708	0.93144145	0.29835824
137	0.544	-0.086411765	0.11163637	-0.038600037	-0.79937634	0.035490472	0.13124062	-0.21121178	0.083007255	-0.052145102	-0.92948321	0.068240422	0.14852134	-0.212391	0.10068875	0.03214433	-0.90405725	0.081948671	0.060775703	-0.25477065	0.020645082	0.0018401994	-0.98694036	0.049061095	0.08409044	-0.3519376	0.42331535	-0.060987837	-0.71649449	0.4001065	0.17696199	-0.35830323	0.41877966	0.064850079	-0.74212863	0.40269769	0.044834751	-0.55005751	0.7549654	-0.11144889	-0.61603611	0.74996484	0.23265283	-0.48889836	0.80198896	-0.059618577	-0.50783934	0.800126	0.19246469	-0.68603771	0.87294729	0.052419453	-0.58993211	1.2859274	-0.12609423	-0.56045412	1.2763944	0.23405951	-0.65079495	1.3155796	0.059140616	-0.71925303	1.0035452	-0.17364114	-0.55894826	0.96002473	0.33762567	-0.65164769	0.78101232	-0.25291936	-0.31165111	0.92999454	0.2973634
138	0.548	-0.078432787	0.10935909	-0.038844072	-0.79931921	0.03547492	0.13124296	-0.20321225	0.080601615	-0.052488216	-0.92901289	0.068841711	0.14829313	-0.20436201	0.098225111	0.031788717	-0.90322015	0.082360196	0.060585065	-0.24668856	0.01815945	0.0014965476	-0.98659169	0.050233829	0.083784739	-0.34427359	0.42086448	-0.061146827	-0.71245105	0.39813969	0.17678635	-0.35043199	0.41642895	0.06453947	-0.73679677	0.40063536	0.044736443	-0.54205665	0.7523525	-0.11147458	-0.61019348	0.74751693	0.23242865	-0.48124435	0.79916002	-0.059190784	-0.50159788	0.79769827	0.19276632	-0.67842082	0.87002312	0.051364943	-0.58415787	1.2830604	-0.12649572	-0.55483522	1.2738786	0.23359332	-0.64524887	1.3126622	0.058576318	-0.7134653	1.0010151	-0.17354997	-0.55185507	0.95741902	0.33710792	-0.64829169	0.77827841	-0.2538996	-0.30460388	0.92846581	0.29637276
139	0.552	-0.070804749	0.10679065	-0.039161041	-0.79925023	0.035459301	0.13124205	-0.19556751	0.078010029	-0.052836746	-0.92851547	0.069505959	0.14805869	-0.19668554	0.095558492	0.031408829	-0.90228032	0.082844531	0.060392035	-0.23900685	0.015530263	0.0011749592	-0.98622698	0.051532533	0.083476282	-0.33653713	0.41841805	-0.061354799	-0.7087296	0.39613436	0.17648429	-0.34241578	0.41416138	0.064143734	-0.73144785	0.39856307	0.044647646	-0.5340271	0.74978494	-0.11153764	-0.6042739	0.745056	0.23218412	-0.47355349	0.7964113	-0.058724172	-0.49534898	0.79523692	0.19306413	-0.67082018	0.86708421	0.05036142	-0.57833407	1.2801957	-0.12692342	-0.54924994	1.2713631	0.2331392	-0.63962352	1.3096877	0.057992043	-0.70759789	0.99844881	-0.17343215	-0.54480634	0.95483076	0.3365609	-0.64497298	0.7755183	-0.25489989	-0.29752855	0.9268464	0.29537773
140	0.556	-0.063527896	0.10394608	-0.039558505	-0.79915416	0.035443017	0.13123775	-0.1882603	0.075222206	-0.05316401	-0.92797015	0.070254417	0.1478296	-0.18934529	0.092709997	0.031024044	-0.90127954	0.083394572	0.060202446	-0.23172048	0.012762865	0.00091616017	-0.98582711	0.052947124	0.0831765	-0.32885919	0.41596339	-0.061653953	-0.70513354	0.39412338	0.17617076	-0.33426702	0.41197059	0.063674367	-0.72603649	0.39650088	0.044571	-0.52610684	0.74724674	-0.11162783	-0.59833187	0.74254988	0.23194579	-0.46580969	0.79373841	-0.058214444	-0.48908671	0.79277641	0.19337436	-0.66324691	0.86415379	0.04944004	-0.57242963	1.2773172	-0.12738352	-0.54372907	1.2688452	0.2327043	-0.63391755	1.3067037	0.057387156	-0.70164385	0.99584753	-0.1732723	-0.53776603	0.95224845	0.33597505	-0.64169749	0.77273671	-0.25594071	-0.29040932	0.9251363	0.2943749
141	0.56	-0.056605506	0.1008391	-0.040041699	-0.79902755	0.035429159	0.13123201	-0.18128186	0.072226111	-0.053435332	-0.92737082	0.071101051	0.14762692	-0.18227927	0.089715666	0.030668814	-0.90031997	0.084015651	0.06002625	-0.22482815	0.0098686515	0.00075453238	-0.98538523	0.054465549	0.082921437	-0.3212268	0.41351406	-0.062036225	-0.70134871	0.39216164	0.17598108	-0.32600503	0.40985249	0.063145147	-0.72052921	0.39446075	0.044511992	-0.51827836	0.74474448	-0.11172991	-0.59243133	0.73997731	0.2316949	-0.45801211	0.79113758	-0.057662302	-0.48280613	0.79033141	0.19367424	-0.65569809	0.861253	0.048625457	-0.5664072	1.2744036	-0.12788154	-0.53823977	1.2663291	0.23227547	-0.62815846	1.3037791	0.056754858	-0.69559287	0.99322321	-0.17308378	-0.53072097	0.9496758	0.33535208	-0.63847251	0.76993644	-0.25703565	-0.28327157	0.9233432	0.29337337
